M48
;Layer_Color=9474304
;FILE_FORMAT=4:4
METRIC,LZ
;TYPE=PLATED
T1F00S00C0.3000
T2F00S00C3.2000
%
T01
X00206Y00046
Y00106
X00221
X002135Y00121
X00206Y00136
X00221
X00266
X00281
X002735Y00121
X002585
X00266Y00106
X00281
Y00046
X00401Y00106
X00416
X004085Y00121
X00401Y00136
X00416
X00446
X00461
X00476
X004685Y00121
X004535
X00446Y00106
X00461
X00476
X004685Y00091
X00476Y00076
X004685Y00061
X00476Y00046
Y00166
X00281
T02
X0015Y0007
X00335Y00065
X0052Y0007
X00335Y0016
M30
