G04*
G04 #@! TF.GenerationSoftware,Altium Limited,Altium Designer,21.6.1 (37)*
G04*
G04 Layer_Color=8388736*
%FSLAX44Y44*%
%MOMM*%
G71*
G04*
G04 #@! TF.SameCoordinates,2EC3CD11-7C6B-4978-B67B-F045F0A9A79B*
G04*
G04*
G04 #@! TF.FilePolarity,Negative*
G04*
G01*
G75*
%ADD14C,0.9000*%
%ADD15R,1.3000X3.9000*%
%ADD16R,1.6200X5.1800*%
%ADD17C,7.2000*%
G36*
X222500Y94000D02*
X216000D01*
Y31000D01*
X192000D01*
Y129000D01*
X222500D01*
Y94000D01*
D02*
G37*
G36*
X288000Y31000D02*
X264000D01*
Y94000D01*
X257500D01*
Y129000D01*
X288000D01*
Y31000D01*
D02*
G37*
G36*
X412500Y94000D02*
X406000D01*
Y31000D01*
X382000D01*
Y129000D01*
X412500D01*
Y94000D01*
D02*
G37*
G36*
X478000Y31000D02*
X454000D01*
Y94000D01*
X447500D01*
Y129000D01*
X478000D01*
Y31000D01*
D02*
G37*
D14*
X455000Y120000D02*
Y165000D01*
X405000Y120000D02*
Y155000D01*
X265000Y120000D02*
Y160000D01*
X215000Y110000D02*
Y155000D01*
D15*
X430000Y122000D02*
D03*
X240000D02*
D03*
D16*
X265400Y170000D02*
D03*
X240000D02*
D03*
X214600D02*
D03*
X455800D02*
D03*
X430400D02*
D03*
X405000D02*
D03*
D17*
X335000Y65000D02*
D03*
Y160000D02*
D03*
X520000Y70000D02*
D03*
X150000D02*
D03*
M02*
