G04*
G04 #@! TF.GenerationSoftware,Altium Limited,Altium Designer,21.6.1 (37)*
G04*
G04 Layer_Color=8421504*
%FSLAX44Y44*%
%MOMM*%
G71*
G04*
G04 #@! TF.SameCoordinates,2EC3CD11-7C6B-4978-B67B-F045F0A9A79B*
G04*
G04*
G04 #@! TF.FilePolarity,Positive*
G04*
G01*
G75*
%ADD12R,1.2000X3.8000*%
%ADD13R,1.5200X5.0800*%
%ADD14C,0.9000*%
G36*
X221500Y95000D02*
X215000D01*
Y32000D01*
X193000D01*
Y128000D01*
X221500D01*
Y95000D01*
D02*
G37*
G36*
X287000Y32000D02*
X265000D01*
Y95000D01*
X258500D01*
Y128000D01*
X287000D01*
Y32000D01*
D02*
G37*
G36*
X411500Y95000D02*
X405000D01*
Y32000D01*
X383000D01*
Y128000D01*
X411500D01*
Y95000D01*
D02*
G37*
G36*
X477000Y32000D02*
X455000D01*
Y95000D01*
X448500D01*
Y128000D01*
X477000D01*
Y32000D01*
D02*
G37*
D12*
X430000Y122000D02*
D03*
X240000D02*
D03*
D13*
X265400Y170000D02*
D03*
X240000D02*
D03*
X214600D02*
D03*
X455800D02*
D03*
X430400D02*
D03*
X405000D02*
D03*
D14*
X455000Y120000D02*
Y165000D01*
X405000Y120000D02*
Y155000D01*
X265000Y120000D02*
Y160000D01*
X215000Y110000D02*
Y155000D01*
M02*
