G04*
G04 #@! TF.GenerationSoftware,Altium Limited,Altium Designer,21.6.1 (37)*
G04*
G04 Layer_Physical_Order=1*
G04 Layer_Color=255*
%FSLAX44Y44*%
%MOMM*%
G71*
G04*
G04 #@! TF.SameCoordinates,093F2D74-96CB-4BC5-AE0C-1D58DF06F95F*
G04*
G04*
G04 #@! TF.FilePolarity,Positive*
G04*
G01*
G75*
%ADD12R,1.2000X3.8000*%
%ADD13R,1.5200X5.0800*%
%ADD14C,0.9000*%
%ADD18R,0.5000X0.5000*%
%ADD19C,0.7000*%
%ADD20C,7.0000*%
G36*
X291230Y32243D02*
X287000D01*
Y32000D01*
X265000D01*
Y95000D01*
X258500D01*
Y97243D01*
X221500D01*
Y95000D01*
X215000D01*
Y32000D01*
X193000D01*
Y32243D01*
X176230D01*
Y44937D01*
X177665Y46372D01*
X181021Y50990D01*
X183613Y56077D01*
X185377Y61507D01*
X186270Y67146D01*
Y72854D01*
X185377Y78493D01*
X183613Y83923D01*
X181021Y89010D01*
X177665Y93628D01*
X176230Y95063D01*
Y168058D01*
X200929Y192757D01*
X231130D01*
Y143330D01*
X232223D01*
X232730Y142270D01*
Y101730D01*
X247270D01*
Y142270D01*
X247777Y143330D01*
X248870D01*
Y192757D01*
X291230D01*
Y32243D01*
D02*
G37*
G36*
X490000Y171828D02*
Y90415D01*
X488979Y89010D01*
X486387Y83923D01*
X484623Y78493D01*
X483730Y72854D01*
Y67146D01*
X484623Y61507D01*
X486387Y56077D01*
X488979Y50990D01*
X490000Y49585D01*
Y32243D01*
X477000D01*
Y32000D01*
X455000D01*
Y95000D01*
X448500D01*
Y97243D01*
X411500D01*
Y95000D01*
X405000D01*
Y32000D01*
X383000D01*
Y32243D01*
X375000D01*
Y192757D01*
X421530D01*
Y143330D01*
X422223D01*
X422730Y142270D01*
Y101730D01*
X437270D01*
Y142270D01*
X437777Y143330D01*
X439270D01*
Y192757D01*
X469071D01*
X490000Y171828D01*
D02*
G37*
D12*
X430000Y122000D02*
D03*
X240000D02*
D03*
D13*
X265400Y170000D02*
D03*
X240000D02*
D03*
X214600D02*
D03*
X455800D02*
D03*
X430400D02*
D03*
X405000D02*
D03*
D14*
X430200Y130200D02*
Y169800D01*
X430400Y170000D01*
X430000Y130000D02*
X430200Y130200D01*
X240000Y122000D02*
Y170000D01*
Y120000D02*
Y122000D01*
X455000Y120000D02*
Y165000D01*
X405000Y120000D02*
Y155000D01*
X265000Y120000D02*
Y160000D01*
X215000Y110000D02*
Y155000D01*
D18*
X466000Y80000D02*
D03*
X394000D02*
D03*
X276000D02*
D03*
X204000D02*
D03*
D19*
X476000Y166000D02*
D03*
Y136000D02*
D03*
Y106000D02*
D03*
Y76000D02*
D03*
Y46000D02*
D03*
X461000Y136000D02*
D03*
X468500Y121000D02*
D03*
X461000Y106000D02*
D03*
X468500Y91000D02*
D03*
Y61000D02*
D03*
X446000Y136000D02*
D03*
X453500Y121000D02*
D03*
X446000Y106000D02*
D03*
X416000Y136000D02*
D03*
Y106000D02*
D03*
X401000Y136000D02*
D03*
X408500Y121000D02*
D03*
X401000Y106000D02*
D03*
X281000Y166000D02*
D03*
Y136000D02*
D03*
Y106000D02*
D03*
Y46000D02*
D03*
X266000Y136000D02*
D03*
X273500Y121000D02*
D03*
X266000Y106000D02*
D03*
X258500Y121000D02*
D03*
X221000Y136000D02*
D03*
Y106000D02*
D03*
X206000Y136000D02*
D03*
X213500Y121000D02*
D03*
X206000Y106000D02*
D03*
Y46000D02*
D03*
D20*
X335000Y65000D02*
D03*
Y160000D02*
D03*
X520000Y70000D02*
D03*
X150000D02*
D03*
M02*
